<svg xmlns="http://www.w3.org/2000/svg" xmlns:xlink="http://www.w3.org/1999/xlink" version="1.1" width="256" height="256" viewBox="0 0 256 256" xml:space="preserve">

<defs>
</defs>
<g style="stroke: none; stroke-width: 0; stroke-dasharray: none; stroke-linecap: butt; stroke-linejoin: miter; stroke-miterlimit: 10; fill: none; fill-rule: nonzero; opacity: 1;" transform="translate(1.4065934065934016 1.4065934065934016) scale(2.81 2.81)" >
	<path d="M 89 71.873 H 50.484 c -0.553 0 -1 -0.447 -1 -1 s 0.447 -1 1 -1 H 88 V 59.779 H 14.003 v 8.601 c 0 0.553 -0.448 1 -1 1 s -1 -0.447 -1 -1 v -9.601 c 0 -0.553 0.448 -1 1 -1 H 89 c 0.553 0 1 0.447 1 1 v 12.094 C 90 71.426 89.553 71.873 89 71.873 z" style="stroke: none; stroke-width: 1; stroke-dasharray: none; stroke-linecap: butt; stroke-linejoin: miter; stroke-miterlimit: 10; fill: rgb(0,0,0); fill-rule: nonzero; opacity: 1;" transform=" matrix(1 0 0 1 0 0) " stroke-linecap="round" />
	<path d="M 26.085 81.504 c -0.738 0 -1.48 -0.082 -2.208 -0.243 l -7.727 -1.724 c -0.808 -0.18 -1.64 -0.271 -2.473 -0.271 H 8.257 c -0.552 0 -1 -0.447 -1 -1 v -9.452 c 0 -0.268 0.107 -0.524 0.298 -0.713 c 0.191 -0.188 0.449 -0.28 0.717 -0.287 l 3.527 0.056 c 0.255 0 0.448 -0.085 0.629 -0.243 c 2.943 -2.571 5.668 -4.378 10.154 -5.437 c 1.492 -0.334 2.945 -0.258 4.35 -0.183 c 2.1 0.109 4.083 0.217 6.388 -0.875 c 1.474 -0.697 2.703 -0.664 3.65 0.104 c 0.758 0.614 1.218 1.592 1.2 2.551 c -0.015 0.787 -0.351 1.467 -0.947 1.913 c -2.523 1.892 -4.711 2.236 -6.641 2.541 c -0.541 0.085 -1.049 0.166 -1.539 0.273 c 4.388 1.987 12.495 0.542 18.614 -0.546 c 1.635 -0.288 3.226 0.687 3.71 2.271 c 0.491 1.604 -0.302 3.314 -1.843 3.978 l -15.157 6.401 c -1.22 0.525 -2.52 0.803 -3.857 0.822 l 0 0 l -4.276 0.063 C 26.186 81.504 26.135 81.504 26.085 81.504 z M 30.497 80.44 h 0.01 H 30.497 z M 9.257 77.266 h 4.421 c 0.979 0 1.958 0.107 2.908 0.32 l 7.726 1.723 c 0.623 0.139 1.26 0.212 1.893 0.194 l 4.276 -0.063 c 1.074 -0.016 2.118 -0.238 3.102 -0.662 l 15.157 -6.4 c 0.597 -0.257 0.906 -0.926 0.715 -1.553 c -0.189 -0.619 -0.813 -1.006 -1.448 -0.888 c -7.365 1.312 -17.453 3.106 -21.891 -0.964 c -0.243 -0.223 -0.36 -0.55 -0.314 -0.876 c 0.045 -0.325 0.248 -0.608 0.542 -0.756 c 1.332 -0.667 2.651 -0.875 3.927 -1.076 c 1.783 -0.281 3.626 -0.572 5.752 -2.166 c 0.039 -0.029 0.142 -0.106 0.147 -0.351 c 0.006 -0.34 -0.183 -0.734 -0.46 -0.959 c -0.124 -0.101 -0.45 -0.364 -1.535 0.149 c -2.76 1.308 -5.196 1.179 -7.35 1.064 c -1.327 -0.07 -2.583 -0.137 -3.796 0.135 c -4.089 0.965 -6.503 2.563 -9.286 4.994 c -0.545 0.476 -1.236 0.736 -1.949 0.736 c -0.006 0 -0.012 0 -0.018 0 l -2.521 -0.04 V 77.266 z" style="stroke: none; stroke-width: 1; stroke-dasharray: none; stroke-linecap: butt; stroke-linejoin: miter; stroke-miterlimit: 10; fill: rgb(0,0,0); fill-rule: nonzero; opacity: 1;" transform=" matrix(1 0 0 1 0 0) " stroke-linecap="round" />
	<path d="M 8.257 83.043 H 1 c -0.552 0 -1 -0.447 -1 -1 V 67.009 c 0 -0.553 0.448 -1 1 -1 h 7.257 c 0.552 0 1 0.447 1 1 v 15.034 C 9.257 82.596 8.81 83.043 8.257 83.043 z M 2 81.043 h 5.257 V 68.009 H 2 V 81.043 z" style="stroke: none; stroke-width: 1; stroke-dasharray: none; stroke-linecap: butt; stroke-linejoin: miter; stroke-miterlimit: 10; fill: rgb(0,0,0); fill-rule: nonzero; opacity: 1;" transform=" matrix(1 0 0 1 0 0) " stroke-linecap="round" />
	<path d="M 78.115 59.779 h -11.9 c -0.281 0 -0.55 -0.119 -0.739 -0.327 s -0.283 -0.486 -0.256 -0.767 L 70.03 7.863 c 0.048 -0.505 0.466 -0.895 0.973 -0.905 c 0.008 0 0.016 0 0.022 0 c 0.498 0 0.921 0.367 0.99 0.862 l 7.09 50.822 c 0.04 0.286 -0.046 0.576 -0.236 0.794 C 78.68 59.654 78.404 59.779 78.115 59.779 z M 67.313 57.779 h 9.652 l -5.75 -41.22 L 67.313 57.779 z" style="stroke: none; stroke-width: 1; stroke-dasharray: none; stroke-linecap: butt; stroke-linejoin: miter; stroke-miterlimit: 10; fill: rgb(0,0,0); fill-rule: nonzero; opacity: 1;" transform=" matrix(1 0 0 1 0 0) " stroke-linecap="round" />
	<path d="M 38.474 26.681 c -0.031 0 -0.063 -0.001 -0.095 -0.004 c -0.55 -0.052 -0.953 -0.54 -0.901 -1.09 l 0.721 -7.613 c 0.052 -0.549 0.533 -0.951 1.09 -0.901 c 0.55 0.052 0.953 0.54 0.901 1.09 l -0.721 7.613 C 39.419 26.293 38.983 26.681 38.474 26.681 z" style="stroke: none; stroke-width: 1; stroke-dasharray: none; stroke-linecap: butt; stroke-linejoin: miter; stroke-miterlimit: 10; fill: rgb(0,0,0); fill-rule: nonzero; opacity: 1;" transform=" matrix(1 0 0 1 0 0) " stroke-linecap="round" />
	<path d="M 66.215 59.779 H 43.109 c -0.552 0 -1 -0.447 -1 -1 s 0.448 -1 1 -1 h 23.105 c 0.553 0 1 0.447 1 1 S 66.768 59.779 66.215 59.779 z" style="stroke: none; stroke-width: 1; stroke-dasharray: none; stroke-linecap: butt; stroke-linejoin: miter; stroke-miterlimit: 10; fill: rgb(0,0,0); fill-rule: nonzero; opacity: 1;" transform=" matrix(1 0 0 1 0 0) " stroke-linecap="round" />
	<path d="M 66.209 19.068 H 35.334 c -0.343 0 -0.663 -0.176 -0.846 -0.466 c -0.183 -0.29 -0.205 -0.654 -0.057 -0.964 l 4.816 -10.11 c 0.166 -0.348 0.517 -0.57 0.903 -0.57 h 30.754 c 0.342 0 0.659 0.174 0.843 0.462 c 0.184 0.288 0.208 0.649 0.064 0.959 l -4.695 10.11 C 66.952 18.842 66.599 19.068 66.209 19.068 z M 36.918 17.068 h 28.653 l 3.766 -8.11 H 40.782 L 36.918 17.068 z" style="stroke: none; stroke-width: 1; stroke-dasharray: none; stroke-linecap: butt; stroke-linejoin: miter; stroke-miterlimit: 10; fill: rgb(0,0,0); fill-rule: nonzero; opacity: 1;" transform=" matrix(1 0 0 1 0 0) " stroke-linecap="round" />
	<path d="M 43.109 59.779 H 27.167 c -0.515 0 -0.946 -0.392 -0.996 -0.904 l -2.353 -24.471 c -0.027 -0.281 0.066 -0.56 0.255 -0.768 s 0.458 -0.328 0.74 -0.328 h 20.648 c 0.282 0 0.55 0.119 0.74 0.328 c 0.19 0.208 0.282 0.487 0.256 0.768 l -2.353 24.471 C 44.056 59.388 43.625 59.779 43.109 59.779 z M 28.076 57.779 h 14.125 l 2.161 -22.471 H 25.915 L 28.076 57.779 z" style="stroke: none; stroke-width: 1; stroke-dasharray: none; stroke-linecap: butt; stroke-linejoin: miter; stroke-miterlimit: 10; fill: rgb(0,0,0); fill-rule: nonzero; opacity: 1;" transform=" matrix(1 0 0 1 0 0) " stroke-linecap="round" />
	<path d="M 48.99 35.308 H 21.286 c -0.327 0 -0.633 -0.16 -0.82 -0.427 s -0.231 -0.61 -0.119 -0.917 l 3.157 -8.627 c 0.144 -0.394 0.519 -0.656 0.939 -0.656 h 21.39 c 0.42 0 0.795 0.262 0.939 0.656 l 3.157 8.627 c 0.112 0.307 0.067 0.649 -0.12 0.917 C 49.623 35.148 49.316 35.308 48.99 35.308 z M 22.717 33.308 H 47.56 l -2.425 -6.627 H 25.142 L 22.717 33.308 z" style="stroke: none; stroke-width: 1; stroke-dasharray: none; stroke-linecap: butt; stroke-linejoin: miter; stroke-miterlimit: 10; fill: rgb(0,0,0); fill-rule: nonzero; opacity: 1;" transform=" matrix(1 0 0 1 0 0) " stroke-linecap="round" />
</g>
</svg>